M48
METRIC,LZ,000.000
;FILE_FORMAT=3:3
;TYPE=PLATED
;Layer: PTH_Through
;EasyEDA v6.5.22, 2023-04-27 12:34:47
;779951e368854bcf816121ffef92272d,e59a714fa63a4c4d88f0ac6658be742b,10
;Gerber Generator version 0.2
;Holesize 1 = 0.889 mm
T01C0.889
;Holesize 2 = 0.915 mm
T02C0.915
;Holesize 3 = 1.000 mm
T03C1.000
;Holesize 4 = 1.200 mm
T04C1.200
%
G05
G90
T01
X033147Y-060833
X010287Y-043053
X010287Y-045593
X010287Y-048133
X010287Y-050673
X010287Y-053213
X010287Y-055753
X010287Y-058293
X010287Y-060833
X033147Y-043053
X033147Y-045593
X033147Y-048133
X033147Y-050673
X033147Y-053213
X033147Y-055753
X033147Y-058293
T02
X037846Y-075057
X035306Y-075057
X032766Y-075057
X030226Y-075057
X027686Y-075057
X025146Y-075057
X022606Y-075057
X020066Y-075057
X017526Y-075057
X014986Y-075057
X012446Y-075057
X009906Y-075057
X007366Y-075057
X004826Y-075057
X025476Y-002134
X022936Y-002134
X020396Y-002134
X017856Y-002134
T03
X002818Y-058700
X005818Y-058648
T04
X035433Y-002286
X032893Y-002286
X030353Y-002286
X013462Y-002286
X010922Y-002286
X008382Y-002286
M30
