G04 Layer: TopLayer*
G04 EasyEDA v6.5.22, 2023-04-27 12:34:47*
G04 779951e368854bcf816121ffef92272d,e59a714fa63a4c4d88f0ac6658be742b,10*
G04 Gerber Generator version 0.2*
G04 Scale: 100 percent, Rotated: No, Reflected: No *
G04 Dimensions in millimeters *
G04 leading zeros omitted , absolute positions ,4 integer and 5 decimal *
%FSLAX45Y45*%
%MOMM*%

%AMMACRO1*21,1,$1,$2,0,0,$3*%
%ADD10C,0.2540*%
%ADD11C,1.8000*%
%ADD12MACRO1,1.5748X1.8X0.0000*%
%ADD13MACRO1,1.524X1.524X90.0000*%
%ADD14C,1.5240*%
%ADD15C,1.5750*%
%ADD16C,0.6100*%

%LPD*%
D10*
X736600Y-7505700D02*
G01*
X857529Y-7626629D01*
X1631670Y-7626629D01*
X1752600Y-7505700D01*
X3314700Y-4813300D02*
G01*
X2514600Y-5613400D01*
X2514600Y-7505700D01*
X1028700Y-4559300D02*
G01*
X581787Y-5006212D01*
X581787Y-5864783D01*
X838200Y-228600D02*
G01*
X838200Y-4368800D01*
X1028700Y-4559300D01*
X3543300Y-228600D02*
G01*
X3543300Y-4076700D01*
X3314700Y-4305300D01*
X3784600Y-7505700D02*
G01*
X3784600Y-7398740D01*
X2006600Y-7505700D02*
G01*
X2006600Y-5898895D01*
X3314700Y-4590795D01*
X3314700Y-4559300D01*
X1244600Y-7505700D02*
G01*
X1244600Y-5283200D01*
X1028700Y-5067300D01*
X3022600Y-7505700D02*
G01*
X3022600Y-6375400D01*
X3314700Y-6083300D01*
X482600Y-7505700D02*
G01*
X884326Y-7103973D01*
X884326Y-4957673D01*
X1028700Y-4813300D01*
X3314700Y-5321300D02*
G01*
X2650743Y-5985255D01*
X2650743Y-7585455D01*
X2603500Y-7632700D01*
X2387600Y-7632700D01*
X2260600Y-7505700D01*
X3784600Y-7398740D02*
G01*
X3771518Y-7385659D01*
X3771518Y-4762119D01*
X3314700Y-4305300D01*
X3289300Y-228600D02*
G01*
X3149600Y-584200D01*
X3136900Y-4368800D01*
X3200400Y-4432300D01*
X3365500Y-4432300D01*
X3432809Y-4499610D01*
X3432809Y-5711189D01*
X3314700Y-5829300D01*
X1752600Y-7505700D02*
G01*
X1752600Y-5892800D01*
X2633472Y-5011928D01*
X2806700Y-5011928D01*
D11*
G01*
X3543300Y-228600D03*
G01*
X3289300Y-228600D03*
D12*
G01*
X3035300Y-228600D03*
D11*
G01*
X1346200Y-228600D03*
G01*
X1092200Y-228600D03*
D12*
G01*
X838200Y-228600D03*
D13*
G01*
X3784600Y-7505700D03*
D14*
G01*
X3530600Y-7505700D03*
G01*
X3276600Y-7505700D03*
G01*
X3022600Y-7505700D03*
G01*
X2768600Y-7505700D03*
G01*
X2514600Y-7505700D03*
G01*
X2260600Y-7505700D03*
G01*
X2006600Y-7505700D03*
G01*
X1752600Y-7505700D03*
G01*
X1498600Y-7505700D03*
G01*
X1244600Y-7505700D03*
G01*
X990600Y-7505700D03*
G01*
X736600Y-7505700D03*
G01*
X482600Y-7505700D03*
D13*
G01*
X2547620Y-213385D03*
D14*
G01*
X2293620Y-213360D03*
G01*
X2039620Y-213360D03*
G01*
X1785620Y-213360D03*
D15*
G01*
X3314700Y-6083300D03*
G01*
X1028700Y-4305300D03*
G01*
X1028700Y-4559300D03*
G01*
X1028700Y-4813300D03*
G01*
X1028700Y-5067300D03*
G01*
X1028700Y-5321300D03*
G01*
X1028700Y-5575300D03*
G01*
X1028700Y-5829300D03*
G01*
X1028700Y-6083300D03*
G01*
X3314700Y-4305300D03*
G01*
X3314700Y-4559300D03*
G01*
X3314700Y-4813300D03*
G01*
X3314700Y-5067300D03*
G01*
X3314700Y-5321300D03*
G01*
X3314700Y-5575300D03*
G01*
X3314700Y-5829300D03*
D11*
G01*
X281812Y-5870016D03*
G01*
X581787Y-5864783D03*
D16*
G01*
X2806700Y-5012004D03*
M02*
