G04 Layer: BottomSilkscreenLayer*
G04 EasyEDA v6.5.22, 2023-04-27 12:34:47*
G04 779951e368854bcf816121ffef92272d,e59a714fa63a4c4d88f0ac6658be742b,10*
G04 Gerber Generator version 0.2*
G04 Scale: 100 percent, Rotated: No, Reflected: No *
G04 Dimensions in millimeters *
G04 leading zeros omitted , absolute positions ,4 integer and 5 decimal *
%FSLAX45Y45*%
%MOMM*%

%ADD10C,0.2032*%
%ADD11C,0.2030*%
%ADD12C,0.1524*%
%ADD13C,0.2030*%
%ADD14C,0.2000*%
%ADD15C,0.2540*%
%ADD16C,0.0112*%

%LPD*%
D10*
X852609Y-555444D02*
G01*
X797336Y-555444D01*
X786973Y-558899D01*
X783518Y-562353D01*
X780064Y-569264D01*
X780064Y-579628D01*
X783518Y-586536D01*
X842246Y-555444D02*
G01*
X849155Y-562353D01*
X852609Y-569264D01*
X852609Y-579628D01*
X849155Y-586536D01*
X842246Y-593445D01*
X831883Y-596900D01*
X824971Y-596900D01*
X814608Y-593445D01*
X807699Y-586536D01*
X804245Y-579628D01*
X804245Y-569264D01*
X807699Y-562353D01*
X814608Y-555444D01*
X852609Y-532645D02*
G01*
X804245Y-532645D01*
X838791Y-532645D02*
G01*
X849155Y-522282D01*
X852609Y-515373D01*
X852609Y-505007D01*
X849155Y-498099D01*
X838791Y-494644D01*
X804245Y-494644D01*
X876790Y-430390D02*
G01*
X804245Y-430390D01*
X842246Y-430390D02*
G01*
X849155Y-437299D01*
X852609Y-444207D01*
X852609Y-454573D01*
X849155Y-461482D01*
X842246Y-468391D01*
X831883Y-471845D01*
X824971Y-471845D01*
X814608Y-468391D01*
X807699Y-461482D01*
X804245Y-454573D01*
X804245Y-444207D01*
X807699Y-437299D01*
X814608Y-430390D01*
X1397490Y-589991D02*
G01*
X1397490Y-551990D01*
X1369855Y-572719D01*
X1369855Y-562353D01*
X1366400Y-555444D01*
X1362946Y-551990D01*
X1352583Y-548535D01*
X1345671Y-548535D01*
X1335308Y-551990D01*
X1328399Y-558899D01*
X1324945Y-569264D01*
X1324945Y-579628D01*
X1328399Y-589991D01*
X1331854Y-593445D01*
X1338762Y-596900D01*
X1373309Y-525736D02*
G01*
X1324945Y-505007D01*
X1373309Y-484281D02*
G01*
X1324945Y-505007D01*
X1397490Y-454573D02*
G01*
X1397490Y-416572D01*
X1369855Y-437299D01*
X1369855Y-426935D01*
X1366400Y-420027D01*
X1362946Y-416572D01*
X1352583Y-413118D01*
X1345671Y-413118D01*
X1335308Y-416572D01*
X1328399Y-423481D01*
X1324945Y-433844D01*
X1324945Y-444207D01*
X1328399Y-454573D01*
X1331854Y-458028D01*
X1338762Y-461482D01*
X3037009Y-542744D02*
G01*
X2981736Y-542744D01*
X2971373Y-546199D01*
X2967918Y-549653D01*
X2964464Y-556564D01*
X2964464Y-566928D01*
X2967918Y-573836D01*
X3026646Y-542744D02*
G01*
X3033555Y-549653D01*
X3037009Y-556564D01*
X3037009Y-566928D01*
X3033555Y-573836D01*
X3026646Y-580745D01*
X3016283Y-584200D01*
X3009371Y-584200D01*
X2999008Y-580745D01*
X2992099Y-573836D01*
X2988645Y-566928D01*
X2988645Y-556564D01*
X2992099Y-549653D01*
X2999008Y-542744D01*
X3037009Y-519945D02*
G01*
X2988645Y-519945D01*
X3023191Y-519945D02*
G01*
X3033555Y-509582D01*
X3037009Y-502673D01*
X3037009Y-492307D01*
X3033555Y-485399D01*
X3023191Y-481944D01*
X2988645Y-481944D01*
X3061190Y-417690D02*
G01*
X2988645Y-417690D01*
X3026646Y-417690D02*
G01*
X3033555Y-424599D01*
X3037009Y-431507D01*
X3037009Y-441873D01*
X3033555Y-448782D01*
X3026646Y-455691D01*
X3016283Y-459145D01*
X3009371Y-459145D01*
X2999008Y-455691D01*
X2992099Y-448782D01*
X2988645Y-441873D01*
X2988645Y-431507D01*
X2992099Y-424599D01*
X2999008Y-417690D01*
X3594590Y-577291D02*
G01*
X3594590Y-539290D01*
X3566955Y-560019D01*
X3566955Y-549653D01*
X3563500Y-542744D01*
X3560046Y-539290D01*
X3549683Y-535835D01*
X3542771Y-535835D01*
X3532408Y-539290D01*
X3525499Y-546199D01*
X3522045Y-556564D01*
X3522045Y-566928D01*
X3525499Y-577291D01*
X3528954Y-580745D01*
X3535862Y-584200D01*
X3570409Y-513036D02*
G01*
X3522045Y-492307D01*
X3570409Y-471581D02*
G01*
X3522045Y-492307D01*
X3594590Y-441873D02*
G01*
X3594590Y-403872D01*
X3566955Y-424599D01*
X3566955Y-414235D01*
X3563500Y-407327D01*
X3560046Y-403872D01*
X3549683Y-400418D01*
X3542771Y-400418D01*
X3532408Y-403872D01*
X3525499Y-410781D01*
X3522045Y-421144D01*
X3522045Y-431507D01*
X3525499Y-441873D01*
X3528954Y-445328D01*
X3535862Y-448782D01*
X3353290Y-518464D02*
G01*
X3280745Y-546100D01*
X3353290Y-518464D02*
G01*
X3280745Y-490827D01*
X3304926Y-535736D02*
G01*
X3304926Y-501190D01*
X3353290Y-447299D02*
G01*
X3349835Y-457664D01*
X3339472Y-464573D01*
X3322200Y-468028D01*
X3311837Y-468028D01*
X3294562Y-464573D01*
X3284199Y-457664D01*
X3280745Y-447299D01*
X3280745Y-440390D01*
X3284199Y-430027D01*
X3294562Y-423118D01*
X3311837Y-419663D01*
X3322200Y-419663D01*
X3339472Y-423118D01*
X3349835Y-430027D01*
X3353290Y-440390D01*
X3353290Y-447299D01*
X1130790Y-546100D02*
G01*
X1058245Y-546100D01*
X1130790Y-546100D02*
G01*
X1130790Y-521919D01*
X1127335Y-511553D01*
X1120427Y-504644D01*
X1113518Y-501190D01*
X1103155Y-497735D01*
X1085883Y-497735D01*
X1075517Y-501190D01*
X1068608Y-504644D01*
X1061699Y-511553D01*
X1058245Y-521919D01*
X1058245Y-546100D01*
X1130790Y-454207D02*
G01*
X1127335Y-464573D01*
X1116972Y-471482D01*
X1099700Y-474936D01*
X1089337Y-474936D01*
X1072062Y-471482D01*
X1061699Y-464573D01*
X1058245Y-454207D01*
X1058245Y-447299D01*
X1061699Y-436935D01*
X1072062Y-430027D01*
X1089337Y-426572D01*
X1099700Y-426572D01*
X1116972Y-430027D01*
X1127335Y-436935D01*
X1130790Y-447299D01*
X1130790Y-454207D01*
D11*
X3326381Y-677181D02*
G01*
X3329835Y-670272D01*
X3336744Y-663364D01*
X3343653Y-659909D01*
X3357473Y-659909D01*
X3364382Y-663364D01*
X3371291Y-670272D01*
X3374745Y-677181D01*
X3378200Y-687544D01*
X3378200Y-704816D01*
X3374745Y-715182D01*
X3371291Y-722091D01*
X3364382Y-729000D01*
X3357473Y-732454D01*
X3343653Y-732454D01*
X3336744Y-729000D01*
X3329835Y-722091D01*
X3326381Y-715182D01*
X3300128Y-677181D02*
G01*
X3300128Y-673727D01*
X3296673Y-666818D01*
X3293219Y-663364D01*
X3286307Y-659909D01*
X3272490Y-659909D01*
X3265581Y-663364D01*
X3262127Y-666818D01*
X3258672Y-673727D01*
X3258672Y-680636D01*
X3262127Y-687544D01*
X3269035Y-697908D01*
X3303582Y-732454D01*
X3255218Y-732454D01*
X1141981Y-689881D02*
G01*
X1145435Y-682972D01*
X1152344Y-676064D01*
X1159253Y-672609D01*
X1173073Y-672609D01*
X1179982Y-676064D01*
X1186891Y-682972D01*
X1190345Y-689881D01*
X1193800Y-700244D01*
X1193800Y-717516D01*
X1190345Y-727882D01*
X1186891Y-734791D01*
X1179982Y-741700D01*
X1173073Y-745154D01*
X1159253Y-745154D01*
X1152344Y-741700D01*
X1145435Y-734791D01*
X1141981Y-727882D01*
X1112273Y-672609D02*
G01*
X1074272Y-672609D01*
X1094999Y-700244D01*
X1084635Y-700244D01*
X1077727Y-703699D01*
X1074272Y-707153D01*
X1070818Y-717516D01*
X1070818Y-724428D01*
X1074272Y-734791D01*
X1081181Y-741700D01*
X1091544Y-745154D01*
X1101907Y-745154D01*
X1112273Y-741700D01*
X1115728Y-738245D01*
X1119182Y-731337D01*
D12*
X4192015Y-3886200D02*
G01*
X4114038Y-3886200D01*
X4098543Y-3881120D01*
X4088129Y-3870705D01*
X4083050Y-3854957D01*
X4083050Y-3844544D01*
X4088129Y-3829050D01*
X4098543Y-3818636D01*
X4114038Y-3813555D01*
X4192015Y-3813555D01*
X4166108Y-3773931D02*
G01*
X4171188Y-3773931D01*
X4181602Y-3768852D01*
X4186936Y-3763518D01*
X4192015Y-3753104D01*
X4192015Y-3732529D01*
X4186936Y-3722115D01*
X4181602Y-3716781D01*
X4171188Y-3711702D01*
X4160774Y-3711702D01*
X4150359Y-3716781D01*
X4134865Y-3727195D01*
X4083050Y-3779265D01*
X4083050Y-3706368D01*
D10*
X3826256Y-7353300D02*
G01*
X3753358Y-7325613D01*
X3826256Y-7297928D02*
G01*
X3753358Y-7325613D01*
X3808729Y-7222997D02*
G01*
X3815841Y-7226554D01*
X3822700Y-7233412D01*
X3826256Y-7240270D01*
X3826256Y-7254239D01*
X3822700Y-7261097D01*
X3815841Y-7268210D01*
X3808729Y-7271512D01*
X3798570Y-7275068D01*
X3781043Y-7275068D01*
X3770629Y-7271512D01*
X3763772Y-7268210D01*
X3756913Y-7261097D01*
X3753358Y-7254239D01*
X3753358Y-7240270D01*
X3756913Y-7233412D01*
X3763772Y-7226554D01*
X3770629Y-7222997D01*
X3808729Y-7148321D02*
G01*
X3815841Y-7151623D01*
X3822700Y-7158736D01*
X3826256Y-7165594D01*
X3826256Y-7179310D01*
X3822700Y-7186421D01*
X3815841Y-7193279D01*
X3808729Y-7196836D01*
X3798570Y-7200137D01*
X3781043Y-7200137D01*
X3770629Y-7196836D01*
X3763772Y-7193279D01*
X3756913Y-7186421D01*
X3753358Y-7179310D01*
X3753358Y-7165594D01*
X3756913Y-7158736D01*
X3763772Y-7151623D01*
X3770629Y-7148321D01*
X3554729Y-7301229D02*
G01*
X3561841Y-7304786D01*
X3568700Y-7311644D01*
X3572256Y-7318755D01*
X3572256Y-7332471D01*
X3568700Y-7339329D01*
X3561841Y-7346442D01*
X3554729Y-7349744D01*
X3544570Y-7353300D01*
X3527043Y-7353300D01*
X3516629Y-7349744D01*
X3509772Y-7346442D01*
X3502913Y-7339329D01*
X3499358Y-7332471D01*
X3499358Y-7318755D01*
X3502913Y-7311644D01*
X3509772Y-7304786D01*
X3516629Y-7301229D01*
X3527043Y-7301229D01*
X3527043Y-7318755D02*
G01*
X3527043Y-7301229D01*
X3572256Y-7278370D02*
G01*
X3499358Y-7278370D01*
X3572256Y-7278370D02*
G01*
X3499358Y-7230110D01*
X3572256Y-7230110D02*
G01*
X3499358Y-7230110D01*
X3572256Y-7207250D02*
G01*
X3499358Y-7207250D01*
X3572256Y-7207250D02*
G01*
X3572256Y-7182865D01*
X3568700Y-7172452D01*
X3561841Y-7165594D01*
X3554729Y-7162037D01*
X3544570Y-7158736D01*
X3527043Y-7158736D01*
X3516629Y-7162037D01*
X3509772Y-7165594D01*
X3502913Y-7172452D01*
X3499358Y-7182865D01*
X3499358Y-7207250D01*
X3300729Y-7301229D02*
G01*
X3307841Y-7304786D01*
X3314700Y-7311644D01*
X3318256Y-7318755D01*
X3318256Y-7332471D01*
X3314700Y-7339329D01*
X3307841Y-7346442D01*
X3300729Y-7349744D01*
X3290570Y-7353300D01*
X3273043Y-7353300D01*
X3262629Y-7349744D01*
X3255772Y-7346442D01*
X3248913Y-7339329D01*
X3245358Y-7332471D01*
X3245358Y-7318755D01*
X3248913Y-7311644D01*
X3255772Y-7304786D01*
X3262629Y-7301229D01*
X3307841Y-7230110D02*
G01*
X3314700Y-7236968D01*
X3318256Y-7247381D01*
X3318256Y-7261097D01*
X3314700Y-7271512D01*
X3307841Y-7278370D01*
X3300729Y-7278370D01*
X3293872Y-7275068D01*
X3290570Y-7271512D01*
X3287013Y-7264654D01*
X3280156Y-7243826D01*
X3276600Y-7236968D01*
X3273043Y-7233412D01*
X3266186Y-7230110D01*
X3255772Y-7230110D01*
X3248913Y-7236968D01*
X3245358Y-7247381D01*
X3245358Y-7261097D01*
X3248913Y-7271512D01*
X3255772Y-7278370D01*
X3064256Y-7353300D02*
G01*
X2991358Y-7353300D01*
X3064256Y-7353300D02*
G01*
X3064256Y-7322058D01*
X3060700Y-7311644D01*
X3057143Y-7308342D01*
X3050286Y-7304786D01*
X3043427Y-7304786D01*
X3036570Y-7308342D01*
X3033013Y-7311644D01*
X3029458Y-7322058D01*
X3029458Y-7353300D01*
X3029458Y-7329170D02*
G01*
X2991358Y-7304786D01*
X3053841Y-7233412D02*
G01*
X3060700Y-7240270D01*
X3064256Y-7250684D01*
X3064256Y-7264654D01*
X3060700Y-7275068D01*
X3053841Y-7281926D01*
X3046729Y-7281926D01*
X3039872Y-7278370D01*
X3036570Y-7275068D01*
X3033013Y-7268210D01*
X3026156Y-7247381D01*
X3022600Y-7240270D01*
X3019043Y-7236968D01*
X3012186Y-7233412D01*
X3001772Y-7233412D01*
X2994913Y-7240270D01*
X2991358Y-7250684D01*
X2991358Y-7264654D01*
X2994913Y-7275068D01*
X3001772Y-7281926D01*
X3064256Y-7186421D02*
G01*
X2991358Y-7186421D01*
X3064256Y-7210552D02*
G01*
X3064256Y-7162037D01*
X2810256Y-7353300D02*
G01*
X2737358Y-7353300D01*
X2810256Y-7353300D02*
G01*
X2810256Y-7329170D01*
X2806700Y-7318755D01*
X2799841Y-7311644D01*
X2792729Y-7308342D01*
X2782570Y-7304786D01*
X2765043Y-7304786D01*
X2754629Y-7308342D01*
X2747772Y-7311644D01*
X2740913Y-7318755D01*
X2737358Y-7329170D01*
X2737358Y-7353300D01*
X2823972Y-7219695D02*
G01*
X2713227Y-7281926D01*
X2792729Y-7144765D02*
G01*
X2799841Y-7148321D01*
X2806700Y-7155179D01*
X2810256Y-7162037D01*
X2810256Y-7176008D01*
X2806700Y-7182865D01*
X2799841Y-7189723D01*
X2792729Y-7193279D01*
X2782570Y-7196836D01*
X2765043Y-7196836D01*
X2754629Y-7193279D01*
X2747772Y-7189723D01*
X2740913Y-7182865D01*
X2737358Y-7176008D01*
X2737358Y-7162037D01*
X2740913Y-7155179D01*
X2747772Y-7148321D01*
X2754629Y-7144765D01*
X2545841Y-7304786D02*
G01*
X2552700Y-7311644D01*
X2556256Y-7322058D01*
X2556256Y-7336028D01*
X2552700Y-7346442D01*
X2545841Y-7353300D01*
X2538729Y-7353300D01*
X2531872Y-7349744D01*
X2528570Y-7346442D01*
X2525013Y-7339329D01*
X2518156Y-7318755D01*
X2514600Y-7311644D01*
X2511043Y-7308342D01*
X2504186Y-7304786D01*
X2493772Y-7304786D01*
X2486913Y-7311644D01*
X2483358Y-7322058D01*
X2483358Y-7336028D01*
X2486913Y-7346442D01*
X2493772Y-7353300D01*
X2556256Y-7281926D02*
G01*
X2483358Y-7281926D01*
X2556256Y-7281926D02*
G01*
X2556256Y-7257795D01*
X2552700Y-7247381D01*
X2545841Y-7240270D01*
X2538729Y-7236968D01*
X2528570Y-7233412D01*
X2511043Y-7233412D01*
X2500629Y-7236968D01*
X2493772Y-7240270D01*
X2486913Y-7247381D01*
X2483358Y-7257795D01*
X2483358Y-7281926D01*
X2556256Y-7210552D02*
G01*
X2483358Y-7210552D01*
X2291841Y-7304786D02*
G01*
X2298700Y-7311644D01*
X2302256Y-7322058D01*
X2302256Y-7336028D01*
X2298700Y-7346442D01*
X2291841Y-7353300D01*
X2284729Y-7353300D01*
X2277872Y-7349744D01*
X2274570Y-7346442D01*
X2271013Y-7339329D01*
X2264156Y-7318755D01*
X2260600Y-7311644D01*
X2257043Y-7308342D01*
X2250186Y-7304786D01*
X2239772Y-7304786D01*
X2232913Y-7311644D01*
X2229358Y-7322058D01*
X2229358Y-7336028D01*
X2232913Y-7346442D01*
X2239772Y-7353300D01*
X2284729Y-7230110D02*
G01*
X2291841Y-7233412D01*
X2298700Y-7240270D01*
X2302256Y-7247381D01*
X2302256Y-7261097D01*
X2298700Y-7268210D01*
X2291841Y-7275068D01*
X2284729Y-7278370D01*
X2274570Y-7281926D01*
X2257043Y-7281926D01*
X2246629Y-7278370D01*
X2239772Y-7275068D01*
X2232913Y-7268210D01*
X2229358Y-7261097D01*
X2229358Y-7247381D01*
X2232913Y-7240270D01*
X2239772Y-7233412D01*
X2246629Y-7230110D01*
X2302256Y-7207250D02*
G01*
X2229358Y-7207250D01*
X2302256Y-7158736D02*
G01*
X2253741Y-7207250D01*
X2271013Y-7189723D02*
G01*
X2229358Y-7158736D01*
X2048256Y-7353300D02*
G01*
X1975358Y-7353300D01*
X1975358Y-7353300D02*
G01*
X1975358Y-7311644D01*
X2048256Y-7288784D02*
G01*
X1975358Y-7288784D01*
X2048256Y-7288784D02*
G01*
X2048256Y-7243826D01*
X2013458Y-7288784D02*
G01*
X2013458Y-7261097D01*
X1975358Y-7288784D02*
G01*
X1975358Y-7243826D01*
X2048256Y-7220965D02*
G01*
X1975358Y-7220965D01*
X2048256Y-7220965D02*
G01*
X2048256Y-7196836D01*
X2044700Y-7186421D01*
X2037841Y-7179310D01*
X2030729Y-7176008D01*
X2020570Y-7172452D01*
X2003043Y-7172452D01*
X1992629Y-7176008D01*
X1985772Y-7179310D01*
X1978913Y-7186421D01*
X1975358Y-7196836D01*
X1975358Y-7220965D01*
X1783842Y-7304786D02*
G01*
X1790700Y-7311644D01*
X1794255Y-7322058D01*
X1794255Y-7336028D01*
X1790700Y-7346442D01*
X1783842Y-7353300D01*
X1776729Y-7353300D01*
X1769871Y-7349744D01*
X1766570Y-7346442D01*
X1763013Y-7339329D01*
X1756155Y-7318755D01*
X1752600Y-7311644D01*
X1749044Y-7308342D01*
X1742186Y-7304786D01*
X1731771Y-7304786D01*
X1724913Y-7311644D01*
X1721357Y-7322058D01*
X1721357Y-7336028D01*
X1724913Y-7346442D01*
X1731771Y-7353300D01*
X1794255Y-7281926D02*
G01*
X1721357Y-7281926D01*
X1794255Y-7281926D02*
G01*
X1794255Y-7257795D01*
X1790700Y-7247381D01*
X1783842Y-7240270D01*
X1776729Y-7236968D01*
X1766570Y-7233412D01*
X1749044Y-7233412D01*
X1738629Y-7236968D01*
X1731771Y-7240270D01*
X1724913Y-7247381D01*
X1721357Y-7257795D01*
X1721357Y-7281926D01*
X1794255Y-7189723D02*
G01*
X1790700Y-7196836D01*
X1783842Y-7203694D01*
X1776729Y-7207250D01*
X1766570Y-7210552D01*
X1749044Y-7210552D01*
X1738629Y-7207250D01*
X1731771Y-7203694D01*
X1724913Y-7196836D01*
X1721357Y-7189723D01*
X1721357Y-7176008D01*
X1724913Y-7169150D01*
X1731771Y-7162037D01*
X1738629Y-7158736D01*
X1749044Y-7155179D01*
X1766570Y-7155179D01*
X1776729Y-7158736D01*
X1783842Y-7162037D01*
X1790700Y-7169150D01*
X1794255Y-7176008D01*
X1794255Y-7189723D01*
X1522729Y-7301229D02*
G01*
X1529842Y-7304786D01*
X1536700Y-7311644D01*
X1540255Y-7318755D01*
X1540255Y-7332471D01*
X1536700Y-7339329D01*
X1529842Y-7346442D01*
X1522729Y-7349744D01*
X1512570Y-7353300D01*
X1495044Y-7353300D01*
X1484629Y-7349744D01*
X1477771Y-7346442D01*
X1470913Y-7339329D01*
X1467357Y-7332471D01*
X1467357Y-7318755D01*
X1470913Y-7311644D01*
X1477771Y-7304786D01*
X1484629Y-7301229D01*
X1540255Y-7278370D02*
G01*
X1467357Y-7278370D01*
X1467357Y-7278370D02*
G01*
X1467357Y-7236968D01*
X1540255Y-7214108D02*
G01*
X1467357Y-7214108D01*
X1540255Y-7165594D02*
G01*
X1491742Y-7214108D01*
X1509013Y-7196836D02*
G01*
X1467357Y-7165594D01*
X1268729Y-7301229D02*
G01*
X1275842Y-7304786D01*
X1282700Y-7311644D01*
X1286255Y-7318755D01*
X1286255Y-7332471D01*
X1282700Y-7339329D01*
X1275842Y-7346442D01*
X1268729Y-7349744D01*
X1258570Y-7353300D01*
X1241044Y-7353300D01*
X1230629Y-7349744D01*
X1223771Y-7346442D01*
X1216913Y-7339329D01*
X1213357Y-7332471D01*
X1213357Y-7318755D01*
X1216913Y-7311644D01*
X1223771Y-7304786D01*
X1230629Y-7301229D01*
X1275842Y-7230110D02*
G01*
X1282700Y-7236968D01*
X1286255Y-7247381D01*
X1286255Y-7261097D01*
X1282700Y-7271512D01*
X1275842Y-7278370D01*
X1268729Y-7278370D01*
X1261871Y-7275068D01*
X1258570Y-7271512D01*
X1255013Y-7264654D01*
X1248155Y-7243826D01*
X1244600Y-7236968D01*
X1241044Y-7233412D01*
X1234186Y-7230110D01*
X1223771Y-7230110D01*
X1216913Y-7236968D01*
X1213357Y-7247381D01*
X1213357Y-7261097D01*
X1216913Y-7271512D01*
X1223771Y-7278370D01*
X1032255Y-7353300D02*
G01*
X959357Y-7353300D01*
X1032255Y-7353300D02*
G01*
X1032255Y-7329170D01*
X1028700Y-7318755D01*
X1021842Y-7311644D01*
X1014729Y-7308342D01*
X1004570Y-7304786D01*
X987044Y-7304786D01*
X976629Y-7308342D01*
X969771Y-7311644D01*
X962913Y-7318755D01*
X959357Y-7329170D01*
X959357Y-7353300D01*
X1032255Y-7281926D02*
G01*
X959357Y-7281926D01*
X1032255Y-7259065D02*
G01*
X959357Y-7259065D01*
X1032255Y-7259065D02*
G01*
X959357Y-7210552D01*
X1032255Y-7210552D02*
G01*
X959357Y-7210552D01*
X778255Y-7353300D02*
G01*
X705357Y-7353300D01*
X778255Y-7353300D02*
G01*
X778255Y-7329170D01*
X774700Y-7318755D01*
X767842Y-7311644D01*
X760729Y-7308342D01*
X750570Y-7304786D01*
X733044Y-7304786D01*
X722629Y-7308342D01*
X715771Y-7311644D01*
X708913Y-7318755D01*
X705357Y-7329170D01*
X705357Y-7353300D01*
X778255Y-7261097D02*
G01*
X774700Y-7268210D01*
X767842Y-7275068D01*
X760729Y-7278370D01*
X750570Y-7281926D01*
X733044Y-7281926D01*
X722629Y-7278370D01*
X715771Y-7275068D01*
X708913Y-7268210D01*
X705357Y-7261097D01*
X705357Y-7247381D01*
X708913Y-7240270D01*
X715771Y-7233412D01*
X722629Y-7230110D01*
X733044Y-7226554D01*
X750570Y-7226554D01*
X760729Y-7230110D01*
X767842Y-7233412D01*
X774700Y-7240270D01*
X778255Y-7247381D01*
X778255Y-7261097D01*
X524255Y-7353300D02*
G01*
X451357Y-7353300D01*
X524255Y-7330439D02*
G01*
X451357Y-7330439D01*
X524255Y-7330439D02*
G01*
X524255Y-7299197D01*
X520700Y-7288784D01*
X517144Y-7285481D01*
X510286Y-7281926D01*
X503428Y-7281926D01*
X496570Y-7285481D01*
X493013Y-7288784D01*
X489457Y-7299197D01*
X489457Y-7330439D01*
X489457Y-7306310D02*
G01*
X451357Y-7281926D01*
X524255Y-7238237D02*
G01*
X520700Y-7245350D01*
X513842Y-7252208D01*
X506729Y-7255510D01*
X496570Y-7259065D01*
X479044Y-7259065D01*
X468629Y-7255510D01*
X461771Y-7252208D01*
X454913Y-7245350D01*
X451357Y-7238237D01*
X451357Y-7224521D01*
X454913Y-7217410D01*
X461771Y-7210552D01*
X468629Y-7207250D01*
X479044Y-7203694D01*
X496570Y-7203694D01*
X506729Y-7207250D01*
X513842Y-7210552D01*
X520700Y-7217410D01*
X524255Y-7224521D01*
X524255Y-7238237D01*
X465328Y-7227823D02*
G01*
X444500Y-7207250D01*
X1004570Y-7032244D02*
G01*
X1004570Y-7105142D01*
X1028700Y-7032244D02*
G01*
X980186Y-7032244D01*
X936497Y-7032244D02*
G01*
X943610Y-7035800D01*
X950468Y-7042658D01*
X953770Y-7049770D01*
X957326Y-7059929D01*
X957326Y-7077455D01*
X953770Y-7087870D01*
X950468Y-7094728D01*
X943610Y-7101586D01*
X936497Y-7105142D01*
X922781Y-7105142D01*
X915670Y-7101586D01*
X908812Y-7094728D01*
X905510Y-7087870D01*
X901954Y-7077455D01*
X901954Y-7059929D01*
X905510Y-7049770D01*
X908812Y-7042658D01*
X915670Y-7035800D01*
X922781Y-7032244D01*
X936497Y-7032244D01*
X879094Y-7032244D02*
G01*
X879094Y-7084313D01*
X875537Y-7094728D01*
X868679Y-7101586D01*
X858265Y-7105142D01*
X851407Y-7105142D01*
X840994Y-7101586D01*
X834136Y-7094728D01*
X830579Y-7084313D01*
X830579Y-7032244D01*
X755650Y-7049770D02*
G01*
X759205Y-7042658D01*
X766063Y-7035800D01*
X773176Y-7032244D01*
X786892Y-7032244D01*
X793750Y-7035800D01*
X800862Y-7042658D01*
X804163Y-7049770D01*
X807720Y-7059929D01*
X807720Y-7077455D01*
X804163Y-7087870D01*
X800862Y-7094728D01*
X793750Y-7101586D01*
X786892Y-7105142D01*
X773176Y-7105142D01*
X766063Y-7101586D01*
X759205Y-7094728D01*
X755650Y-7087870D01*
X732789Y-7032244D02*
G01*
X732789Y-7105142D01*
X684529Y-7032244D02*
G01*
X684529Y-7105142D01*
X732789Y-7067042D02*
G01*
X684529Y-7067042D01*
X2794000Y-6968744D02*
G01*
X2794000Y-7041642D01*
X2794000Y-7041642D02*
G01*
X2752343Y-7041642D01*
X2677668Y-6986270D02*
G01*
X2680970Y-6979158D01*
X2688081Y-6972300D01*
X2694940Y-6968744D01*
X2708909Y-6968744D01*
X2715768Y-6972300D01*
X2722625Y-6979158D01*
X2726181Y-6986270D01*
X2729484Y-6996429D01*
X2729484Y-7013955D01*
X2726181Y-7024370D01*
X2722625Y-7031228D01*
X2715768Y-7038086D01*
X2708909Y-7041642D01*
X2694940Y-7041642D01*
X2688081Y-7038086D01*
X2680970Y-7031228D01*
X2677668Y-7024370D01*
X2654808Y-6968744D02*
G01*
X2654808Y-7041642D01*
X2654808Y-6968744D02*
G01*
X2630424Y-6968744D01*
X2620009Y-6972300D01*
X2613152Y-6979158D01*
X2609850Y-6986270D01*
X2606293Y-6996429D01*
X2606293Y-7013955D01*
X2609850Y-7024370D01*
X2613152Y-7031228D01*
X2620009Y-7038086D01*
X2630424Y-7041642D01*
X2654808Y-7041642D01*
X2564129Y-494029D02*
G01*
X2571241Y-497586D01*
X2578100Y-504444D01*
X2581656Y-511555D01*
X2581656Y-525271D01*
X2578100Y-532129D01*
X2571241Y-539242D01*
X2564129Y-542544D01*
X2553970Y-546100D01*
X2536443Y-546100D01*
X2526029Y-542544D01*
X2519172Y-539242D01*
X2512313Y-532129D01*
X2508758Y-525271D01*
X2508758Y-511555D01*
X2512313Y-504444D01*
X2519172Y-497586D01*
X2526029Y-494029D01*
X2571241Y-422910D02*
G01*
X2578100Y-429768D01*
X2581656Y-440181D01*
X2581656Y-453897D01*
X2578100Y-464312D01*
X2571241Y-471170D01*
X2564129Y-471170D01*
X2557272Y-467868D01*
X2553970Y-464312D01*
X2550413Y-457454D01*
X2543556Y-436626D01*
X2540000Y-429768D01*
X2536443Y-426212D01*
X2529586Y-422910D01*
X2519172Y-422910D01*
X2512313Y-429768D01*
X2508758Y-440181D01*
X2508758Y-453897D01*
X2512313Y-464312D01*
X2519172Y-471170D01*
X2327656Y-609600D02*
G01*
X2254758Y-609600D01*
X2327656Y-609600D02*
G01*
X2254758Y-581913D01*
X2327656Y-554228D02*
G01*
X2254758Y-581913D01*
X2327656Y-554228D02*
G01*
X2254758Y-554228D01*
X2327656Y-510539D02*
G01*
X2324100Y-517397D01*
X2317241Y-524510D01*
X2310129Y-527812D01*
X2299970Y-531368D01*
X2282443Y-531368D01*
X2272029Y-527812D01*
X2265172Y-524510D01*
X2258313Y-517397D01*
X2254758Y-510539D01*
X2254758Y-496570D01*
X2258313Y-489712D01*
X2265172Y-482854D01*
X2272029Y-479297D01*
X2282443Y-475995D01*
X2299970Y-475995D01*
X2310129Y-479297D01*
X2317241Y-482854D01*
X2324100Y-489712D01*
X2327656Y-496570D01*
X2327656Y-510539D01*
X2317241Y-404621D02*
G01*
X2324100Y-411479D01*
X2327656Y-421894D01*
X2327656Y-435610D01*
X2324100Y-446023D01*
X2317241Y-453136D01*
X2310129Y-453136D01*
X2303272Y-449579D01*
X2299970Y-446023D01*
X2296413Y-439165D01*
X2289556Y-418337D01*
X2286000Y-411479D01*
X2282443Y-407923D01*
X2275586Y-404621D01*
X2265172Y-404621D01*
X2258313Y-411479D01*
X2254758Y-421894D01*
X2254758Y-435610D01*
X2258313Y-446023D01*
X2265172Y-453136D01*
X2327656Y-381762D02*
G01*
X2254758Y-381762D01*
X2073656Y-609600D02*
G01*
X2000758Y-609600D01*
X2073656Y-609600D02*
G01*
X2000758Y-581913D01*
X2073656Y-554228D02*
G01*
X2000758Y-581913D01*
X2073656Y-554228D02*
G01*
X2000758Y-554228D01*
X2073656Y-531368D02*
G01*
X2000758Y-531368D01*
X2063241Y-459994D02*
G01*
X2070100Y-466852D01*
X2073656Y-477265D01*
X2073656Y-491236D01*
X2070100Y-501650D01*
X2063241Y-508507D01*
X2056129Y-508507D01*
X2049272Y-504952D01*
X2045970Y-501650D01*
X2042413Y-494537D01*
X2035556Y-473710D01*
X2032000Y-466852D01*
X2028443Y-463550D01*
X2021586Y-459994D01*
X2011172Y-459994D01*
X2004313Y-466852D01*
X2000758Y-477265D01*
X2000758Y-491236D01*
X2004313Y-501650D01*
X2011172Y-508507D01*
X2073656Y-416305D02*
G01*
X2070100Y-423163D01*
X2063241Y-430276D01*
X2056129Y-433578D01*
X2045970Y-437134D01*
X2028443Y-437134D01*
X2018029Y-433578D01*
X2011172Y-430276D01*
X2004313Y-423163D01*
X2000758Y-416305D01*
X2000758Y-402589D01*
X2004313Y-395478D01*
X2011172Y-388620D01*
X2018029Y-385063D01*
X2028443Y-381762D01*
X2045970Y-381762D01*
X2056129Y-385063D01*
X2063241Y-388620D01*
X2070100Y-395478D01*
X2073656Y-402589D01*
X2073656Y-416305D01*
X1809242Y-561086D02*
G01*
X1816100Y-567944D01*
X1819655Y-578357D01*
X1819655Y-592328D01*
X1816100Y-602742D01*
X1809242Y-609600D01*
X1802129Y-609600D01*
X1795271Y-606044D01*
X1791970Y-602742D01*
X1788413Y-595629D01*
X1781555Y-575055D01*
X1778000Y-567944D01*
X1774444Y-564642D01*
X1767586Y-561086D01*
X1757171Y-561086D01*
X1750313Y-567944D01*
X1746757Y-578357D01*
X1746757Y-592328D01*
X1750313Y-602742D01*
X1757171Y-609600D01*
X1802129Y-486410D02*
G01*
X1809242Y-489712D01*
X1816100Y-496570D01*
X1819655Y-503681D01*
X1819655Y-517397D01*
X1816100Y-524510D01*
X1809242Y-531368D01*
X1802129Y-534670D01*
X1791970Y-538226D01*
X1774444Y-538226D01*
X1764029Y-534670D01*
X1757171Y-531368D01*
X1750313Y-524510D01*
X1746757Y-517397D01*
X1746757Y-503681D01*
X1750313Y-496570D01*
X1757171Y-489712D01*
X1764029Y-486410D01*
X1819655Y-463550D02*
G01*
X1746757Y-463550D01*
X1819655Y-415036D02*
G01*
X1771142Y-463550D01*
X1788413Y-446023D02*
G01*
X1746757Y-415036D01*
X2326386Y-692657D02*
G01*
X2333243Y-685800D01*
X2343658Y-682244D01*
X2357627Y-682244D01*
X2368041Y-685800D01*
X2374900Y-692657D01*
X2374900Y-699770D01*
X2371343Y-706628D01*
X2368041Y-709929D01*
X2360929Y-713486D01*
X2340356Y-720344D01*
X2333243Y-723900D01*
X2329941Y-727455D01*
X2326386Y-734313D01*
X2326386Y-744728D01*
X2333243Y-751586D01*
X2343658Y-755142D01*
X2357627Y-755142D01*
X2368041Y-751586D01*
X2374900Y-744728D01*
X2303525Y-682244D02*
G01*
X2303525Y-755142D01*
X2303525Y-682244D02*
G01*
X2279395Y-682244D01*
X2268981Y-685800D01*
X2261870Y-692657D01*
X2258568Y-699770D01*
X2255011Y-709929D01*
X2255011Y-727455D01*
X2258568Y-737870D01*
X2261870Y-744728D01*
X2268981Y-751586D01*
X2279395Y-755142D01*
X2303525Y-755142D01*
X2126995Y-699770D02*
G01*
X2130297Y-692657D01*
X2137409Y-685800D01*
X2144268Y-682244D01*
X2157984Y-682244D01*
X2165095Y-685800D01*
X2171954Y-692657D01*
X2175509Y-699770D01*
X2178811Y-709929D01*
X2178811Y-727455D01*
X2175509Y-737870D01*
X2171954Y-744728D01*
X2165095Y-751586D01*
X2157984Y-755142D01*
X2144268Y-755142D01*
X2137409Y-751586D01*
X2130297Y-744728D01*
X2126995Y-737870D01*
X2076450Y-682244D02*
G01*
X2104136Y-755142D01*
X2076450Y-682244D02*
G01*
X2048509Y-755142D01*
X2093722Y-730757D02*
G01*
X2058924Y-730757D01*
X2025650Y-682244D02*
G01*
X2025650Y-755142D01*
X2025650Y-682244D02*
G01*
X1994661Y-682244D01*
X1984247Y-685800D01*
X1980691Y-689355D01*
X1977390Y-696213D01*
X1977390Y-703071D01*
X1980691Y-709929D01*
X1984247Y-713486D01*
X1994661Y-717042D01*
X2025650Y-717042D01*
X2001520Y-717042D02*
G01*
X1977390Y-755142D01*
X1954529Y-682244D02*
G01*
X1954529Y-755142D01*
X1954529Y-682244D02*
G01*
X1930145Y-682244D01*
X1919731Y-685800D01*
X1912873Y-692657D01*
X1909318Y-699770D01*
X1906015Y-709929D01*
X1906015Y-727455D01*
X1909318Y-737870D01*
X1912873Y-744728D01*
X1919731Y-751586D01*
X1930145Y-755142D01*
X1954529Y-755142D01*
X3098800Y-355600D02*
G01*
X2908300Y-355600D01*
X2908300Y-101600D01*
X3670300Y-101600D01*
X3670300Y-355600D01*
D13*
X3670300Y-355600D02*
G01*
X3098800Y-355600D01*
D10*
X901700Y-355600D02*
G01*
X711200Y-355600D01*
X711200Y-101600D01*
X1473200Y-101600D01*
X1473200Y-355600D01*
D13*
X1473200Y-355600D02*
G01*
X901700Y-355600D01*
D14*
X1371600Y-7632700D02*
G01*
X1371600Y-7251700D01*
X1658620Y-594385D02*
G01*
X1658620Y-86385D01*
X2674620Y-594385D02*
G01*
X2674620Y-86385D01*
X355600Y-7632700D02*
G01*
X355600Y-7251700D01*
X3911600Y-7632700D02*
G01*
X3911600Y-7251700D01*
D15*
X1676400Y-114300D02*
G01*
X2654300Y-114300D01*
X2654300Y-342900D01*
X1676400Y-342900D01*
X1676400Y-114300D01*
X381000Y-7404100D02*
G01*
X1346200Y-7404100D01*
X1346200Y-7620000D01*
X381000Y-7620000D01*
X381000Y-7404100D01*
X1384300Y-7404100D02*
G01*
X3924300Y-7404100D01*
X3924300Y-7632700D01*
X1384300Y-7632700D01*
X1384300Y-7404100D01*
M02*
