G04 Layer: TopSilkscreenLayer*
G04 EasyEDA v6.5.22, 2023-04-27 12:34:47*
G04 779951e368854bcf816121ffef92272d,e59a714fa63a4c4d88f0ac6658be742b,10*
G04 Gerber Generator version 0.2*
G04 Scale: 100 percent, Rotated: No, Reflected: No *
G04 Dimensions in millimeters *
G04 leading zeros omitted , absolute positions ,4 integer and 5 decimal *
%FSLAX45Y45*%
%MOMM*%

%ADD10C,0.2032*%
%ADD11C,0.1524*%
%ADD12C,0.2540*%

%LPD*%
D10*
X147828Y-4103370D02*
G01*
X140715Y-4110228D01*
X137160Y-4120895D01*
X137160Y-4135120D01*
X140715Y-4145787D01*
X147828Y-4152900D01*
X154939Y-4152900D01*
X162052Y-4149344D01*
X165607Y-4145787D01*
X169163Y-4138676D01*
X176276Y-4117339D01*
X179831Y-4110228D01*
X183387Y-4106926D01*
X190245Y-4103370D01*
X200913Y-4103370D01*
X208026Y-4110228D01*
X211581Y-4120895D01*
X211581Y-4135120D01*
X208026Y-4145787D01*
X200913Y-4152900D01*
X137160Y-4079747D02*
G01*
X211581Y-4062221D01*
X137160Y-4044442D02*
G01*
X211581Y-4062221D01*
X137160Y-4044442D02*
G01*
X211581Y-4026662D01*
X137160Y-4008881D02*
G01*
X211581Y-4026662D01*
X137160Y-3985513D02*
G01*
X211581Y-3985513D01*
X137160Y-3985513D02*
G01*
X137160Y-3953763D01*
X140715Y-3943095D01*
X144271Y-3939539D01*
X151384Y-3935984D01*
X158495Y-3935984D01*
X165607Y-3939539D01*
X169163Y-3943095D01*
X172720Y-3953763D01*
X172720Y-3985513D02*
G01*
X172720Y-3953763D01*
X176276Y-3943095D01*
X179831Y-3939539D01*
X186944Y-3935984D01*
X197357Y-3935984D01*
X204470Y-3939539D01*
X208026Y-3943095D01*
X211581Y-3953763D01*
X211581Y-3985513D01*
X137160Y-3858005D02*
G01*
X211581Y-3858005D01*
X137160Y-3858005D02*
G01*
X137160Y-3833113D01*
X140715Y-3822445D01*
X147828Y-3815334D01*
X154939Y-3811778D01*
X165607Y-3808221D01*
X183387Y-3808221D01*
X193802Y-3811778D01*
X200913Y-3815334D01*
X208026Y-3822445D01*
X211581Y-3833113D01*
X211581Y-3858005D01*
X151384Y-3784854D02*
G01*
X147828Y-3777742D01*
X137160Y-3767073D01*
X211581Y-3767073D01*
X137160Y-3689095D02*
G01*
X211581Y-3689095D01*
X137160Y-3689095D02*
G01*
X211581Y-3660902D01*
X137160Y-3632454D02*
G01*
X211581Y-3660902D01*
X137160Y-3632454D02*
G01*
X211581Y-3632454D01*
X137160Y-3609086D02*
G01*
X140715Y-3605529D01*
X137160Y-3601973D01*
X133604Y-3605529D01*
X137160Y-3609086D01*
X162052Y-3605529D02*
G01*
X211581Y-3605529D01*
X162052Y-3578605D02*
G01*
X211581Y-3578605D01*
X176276Y-3578605D02*
G01*
X165607Y-3567937D01*
X162052Y-3560826D01*
X162052Y-3550157D01*
X165607Y-3543045D01*
X176276Y-3539489D01*
X211581Y-3539489D01*
X137160Y-3516121D02*
G01*
X140715Y-3512565D01*
X137160Y-3509010D01*
X133604Y-3512565D01*
X137160Y-3516121D01*
X162052Y-3512565D02*
G01*
X211581Y-3512565D01*
X137160Y-3420363D02*
G01*
X197357Y-3420363D01*
X208026Y-3416807D01*
X211581Y-3409695D01*
X211581Y-3402584D01*
X162052Y-3431031D02*
G01*
X162052Y-3406139D01*
X162052Y-3361436D02*
G01*
X165607Y-3368547D01*
X172720Y-3375660D01*
X183387Y-3379215D01*
X190245Y-3379215D01*
X200913Y-3375660D01*
X208026Y-3368547D01*
X211581Y-3361436D01*
X211581Y-3351021D01*
X208026Y-3343910D01*
X200913Y-3336797D01*
X190245Y-3333242D01*
X183387Y-3333242D01*
X172720Y-3336797D01*
X165607Y-3343910D01*
X162052Y-3351021D01*
X162052Y-3361436D01*
X154939Y-3251707D02*
G01*
X151384Y-3251707D01*
X144271Y-3248152D01*
X140715Y-3244595D01*
X137160Y-3237484D01*
X137160Y-3223260D01*
X140715Y-3216147D01*
X144271Y-3212592D01*
X151384Y-3209036D01*
X158495Y-3209036D01*
X165607Y-3212592D01*
X176276Y-3219704D01*
X211581Y-3255263D01*
X211581Y-3205479D01*
X193802Y-3178555D02*
G01*
X197357Y-3182112D01*
X200913Y-3178555D01*
X197357Y-3175000D01*
X193802Y-3178555D01*
X137160Y-3116326D02*
G01*
X186944Y-3151631D01*
X186944Y-3098545D01*
X137160Y-3116326D02*
G01*
X211581Y-3116326D01*
X137160Y-3075178D02*
G01*
X211581Y-3075178D01*
X162052Y-3051555D02*
G01*
X211581Y-3051555D01*
X176276Y-3051555D02*
G01*
X165607Y-3041142D01*
X162052Y-3034029D01*
X162052Y-3023362D01*
X165607Y-3016250D01*
X176276Y-3012694D01*
X211581Y-3012694D01*
X172720Y-2946654D02*
G01*
X165607Y-2953765D01*
X162052Y-2960878D01*
X162052Y-2971545D01*
X165607Y-2978657D01*
X172720Y-2985770D01*
X183387Y-2989326D01*
X190245Y-2989326D01*
X200913Y-2985770D01*
X208026Y-2978657D01*
X211581Y-2971545D01*
X211581Y-2960878D01*
X208026Y-2953765D01*
X200913Y-2946654D01*
X137160Y-2844037D02*
G01*
X211581Y-2844037D01*
X137160Y-2868676D02*
G01*
X137160Y-2819145D01*
X162052Y-2777997D02*
G01*
X165607Y-2785110D01*
X172720Y-2792221D01*
X183387Y-2795778D01*
X190245Y-2795778D01*
X200913Y-2792221D01*
X208026Y-2785110D01*
X211581Y-2777997D01*
X211581Y-2767329D01*
X208026Y-2760218D01*
X200913Y-2753105D01*
X190245Y-2749550D01*
X183387Y-2749550D01*
X172720Y-2753105D01*
X165607Y-2760218D01*
X162052Y-2767329D01*
X162052Y-2777997D01*
X162052Y-2726181D02*
G01*
X197357Y-2726181D01*
X208026Y-2722626D01*
X211581Y-2715513D01*
X211581Y-2704845D01*
X208026Y-2697734D01*
X197357Y-2687320D01*
X162052Y-2687320D02*
G01*
X211581Y-2687320D01*
X172720Y-2621279D02*
G01*
X165607Y-2628392D01*
X162052Y-2635504D01*
X162052Y-2646171D01*
X165607Y-2653284D01*
X172720Y-2660142D01*
X183387Y-2663697D01*
X190245Y-2663697D01*
X200913Y-2660142D01*
X208026Y-2653284D01*
X211581Y-2646171D01*
X211581Y-2635504D01*
X208026Y-2628392D01*
X200913Y-2621279D01*
X137160Y-2597912D02*
G01*
X211581Y-2597912D01*
X176276Y-2597912D02*
G01*
X165607Y-2587244D01*
X162052Y-2580131D01*
X162052Y-2569463D01*
X165607Y-2562352D01*
X176276Y-2558795D01*
X211581Y-2558795D01*
X137160Y-2480818D02*
G01*
X211581Y-2480818D01*
X211581Y-2480818D02*
G01*
X211581Y-2438400D01*
X154939Y-2361692D02*
G01*
X147828Y-2365247D01*
X140715Y-2372360D01*
X137160Y-2379471D01*
X137160Y-2393695D01*
X140715Y-2400807D01*
X147828Y-2407920D01*
X154939Y-2411476D01*
X165607Y-2415031D01*
X183387Y-2415031D01*
X193802Y-2411476D01*
X200913Y-2407920D01*
X208026Y-2400807D01*
X211581Y-2393695D01*
X211581Y-2379471D01*
X208026Y-2372360D01*
X200913Y-2365247D01*
X193802Y-2361692D01*
X137160Y-2338323D02*
G01*
X211581Y-2338323D01*
X137160Y-2338323D02*
G01*
X137160Y-2313431D01*
X140715Y-2302763D01*
X147828Y-2295905D01*
X154939Y-2292350D01*
X165607Y-2288794D01*
X183387Y-2288794D01*
X193802Y-2292350D01*
X200913Y-2295905D01*
X208026Y-2302763D01*
X211581Y-2313431D01*
X211581Y-2338323D01*
X137160Y-2210815D02*
G01*
X211581Y-2182368D01*
X137160Y-2153920D02*
G01*
X211581Y-2182368D01*
X151384Y-2130552D02*
G01*
X147828Y-2123439D01*
X137160Y-2112771D01*
X211581Y-2112771D01*
D11*
X748284Y-5130800D02*
G01*
X826262Y-5130800D01*
X841755Y-5125720D01*
X852170Y-5115305D01*
X857250Y-5099557D01*
X857250Y-5089144D01*
X852170Y-5073650D01*
X841755Y-5063236D01*
X826262Y-5058155D01*
X748284Y-5058155D01*
X769112Y-5023865D02*
G01*
X763778Y-5013452D01*
X748284Y-4997704D01*
X857250Y-4997704D01*
X3111500Y-6120384D02*
G01*
X3111500Y-6047486D01*
X3111500Y-6120384D02*
G01*
X3080258Y-6120384D01*
X3069843Y-6116828D01*
X3066541Y-6113271D01*
X3062986Y-6106413D01*
X3062986Y-6099555D01*
X3066541Y-6092697D01*
X3069843Y-6089142D01*
X3080258Y-6085586D01*
X3111500Y-6085586D01*
X3087370Y-6085586D02*
G01*
X3062986Y-6047486D01*
X2991611Y-6109970D02*
G01*
X2998470Y-6116828D01*
X3008884Y-6120384D01*
X3022854Y-6120384D01*
X3033268Y-6116828D01*
X3040125Y-6109970D01*
X3040125Y-6102857D01*
X3036570Y-6096000D01*
X3033268Y-6092697D01*
X3026409Y-6089142D01*
X3005581Y-6082284D01*
X2998470Y-6078728D01*
X2995168Y-6075171D01*
X2991611Y-6068313D01*
X2991611Y-6057900D01*
X2998470Y-6051042D01*
X3008884Y-6047486D01*
X3022854Y-6047486D01*
X3033268Y-6051042D01*
X3040125Y-6057900D01*
X2944622Y-6120384D02*
G01*
X2944622Y-6047486D01*
X2968752Y-6120384D02*
G01*
X2920238Y-6120384D01*
X3083813Y-5866384D02*
G01*
X3111500Y-5793486D01*
X3083813Y-5866384D02*
G01*
X3056127Y-5793486D01*
X3101086Y-5817870D02*
G01*
X3066541Y-5817870D01*
X3012440Y-5866384D02*
G01*
X3022854Y-5862828D01*
X3029711Y-5852413D01*
X3033268Y-5835142D01*
X3033268Y-5824728D01*
X3029711Y-5807455D01*
X3022854Y-5797042D01*
X3012440Y-5793486D01*
X3005581Y-5793486D01*
X2995168Y-5797042D01*
X2988309Y-5807455D01*
X2984754Y-5824728D01*
X2984754Y-5835142D01*
X2988309Y-5852413D01*
X2995168Y-5862828D01*
X3005581Y-5866384D01*
X3012440Y-5866384D01*
X3111500Y-5612384D02*
G01*
X3111500Y-5539486D01*
X3111500Y-5612384D02*
G01*
X3087370Y-5612384D01*
X3076956Y-5608828D01*
X3069843Y-5601970D01*
X3066541Y-5594857D01*
X3062986Y-5584697D01*
X3062986Y-5567171D01*
X3066541Y-5556757D01*
X3069843Y-5549900D01*
X3076956Y-5543042D01*
X3087370Y-5539486D01*
X3111500Y-5539486D01*
X3019297Y-5612384D02*
G01*
X3029711Y-5608828D01*
X3036570Y-5598413D01*
X3040125Y-5581142D01*
X3040125Y-5570728D01*
X3036570Y-5553455D01*
X3029711Y-5543042D01*
X3019297Y-5539486D01*
X3012440Y-5539486D01*
X3002025Y-5543042D01*
X2995168Y-5553455D01*
X2991611Y-5570728D01*
X2991611Y-5581142D01*
X2995168Y-5598413D01*
X3002025Y-5608828D01*
X3012440Y-5612384D01*
X3019297Y-5612384D01*
X3111500Y-5358384D02*
G01*
X3111500Y-5285486D01*
X3111500Y-5358384D02*
G01*
X3087370Y-5358384D01*
X3076956Y-5354828D01*
X3069843Y-5347970D01*
X3066541Y-5340857D01*
X3062986Y-5330697D01*
X3062986Y-5313171D01*
X3066541Y-5302757D01*
X3069843Y-5295900D01*
X3076956Y-5289042D01*
X3087370Y-5285486D01*
X3111500Y-5285486D01*
X2998470Y-5358384D02*
G01*
X3033268Y-5358384D01*
X3036570Y-5327142D01*
X3033268Y-5330697D01*
X3022854Y-5334000D01*
X3012440Y-5334000D01*
X3002025Y-5330697D01*
X2995168Y-5323586D01*
X2991611Y-5313171D01*
X2991611Y-5306313D01*
X2995168Y-5295900D01*
X3002025Y-5289042D01*
X3012440Y-5285486D01*
X3022854Y-5285486D01*
X3033268Y-5289042D01*
X3036570Y-5292597D01*
X3040125Y-5299455D01*
X3111500Y-5104384D02*
G01*
X3111500Y-5031486D01*
X3111500Y-5104384D02*
G01*
X3087370Y-5104384D01*
X3076956Y-5100828D01*
X3069843Y-5093970D01*
X3066541Y-5086857D01*
X3062986Y-5076697D01*
X3062986Y-5059171D01*
X3066541Y-5048757D01*
X3069843Y-5041900D01*
X3076956Y-5035042D01*
X3087370Y-5031486D01*
X3111500Y-5031486D01*
X2998470Y-5093970D02*
G01*
X3002025Y-5100828D01*
X3012440Y-5104384D01*
X3019297Y-5104384D01*
X3029711Y-5100828D01*
X3036570Y-5090413D01*
X3040125Y-5073142D01*
X3040125Y-5055870D01*
X3036570Y-5041900D01*
X3029711Y-5035042D01*
X3019297Y-5031486D01*
X3015995Y-5031486D01*
X3005581Y-5035042D01*
X2998470Y-5041900D01*
X2995168Y-5052313D01*
X2995168Y-5055870D01*
X2998470Y-5066284D01*
X3005581Y-5073142D01*
X3015995Y-5076697D01*
X3019297Y-5076697D01*
X3029711Y-5073142D01*
X3036570Y-5066284D01*
X3040125Y-5055870D01*
X3111500Y-4850384D02*
G01*
X3111500Y-4777486D01*
X3111500Y-4850384D02*
G01*
X3087370Y-4850384D01*
X3076956Y-4846828D01*
X3069843Y-4839970D01*
X3066541Y-4832857D01*
X3062986Y-4822697D01*
X3062986Y-4805171D01*
X3066541Y-4794757D01*
X3069843Y-4787900D01*
X3076956Y-4781042D01*
X3087370Y-4777486D01*
X3111500Y-4777486D01*
X2991611Y-4850384D02*
G01*
X3026409Y-4777486D01*
X3040125Y-4850384D02*
G01*
X2991611Y-4850384D01*
X3111500Y-4596384D02*
G01*
X3111500Y-4523486D01*
X3111500Y-4596384D02*
G01*
X3087370Y-4596384D01*
X3076956Y-4592828D01*
X3069843Y-4585970D01*
X3066541Y-4578857D01*
X3062986Y-4568697D01*
X3062986Y-4551171D01*
X3066541Y-4540757D01*
X3069843Y-4533900D01*
X3076956Y-4527042D01*
X3087370Y-4523486D01*
X3111500Y-4523486D01*
X3022854Y-4596384D02*
G01*
X3033268Y-4592828D01*
X3036570Y-4585970D01*
X3036570Y-4578857D01*
X3033268Y-4572000D01*
X3026409Y-4568697D01*
X3012440Y-4565142D01*
X3002025Y-4561586D01*
X2995168Y-4554728D01*
X2991611Y-4547870D01*
X2991611Y-4537455D01*
X2995168Y-4530597D01*
X2998470Y-4527042D01*
X3008884Y-4523486D01*
X3022854Y-4523486D01*
X3033268Y-4527042D01*
X3036570Y-4530597D01*
X3040125Y-4537455D01*
X3040125Y-4547870D01*
X3036570Y-4554728D01*
X3029711Y-4561586D01*
X3019297Y-4565142D01*
X3005581Y-4568697D01*
X2998470Y-4572000D01*
X2995168Y-4578857D01*
X2995168Y-4585970D01*
X2998470Y-4592828D01*
X3008884Y-4596384D01*
X3022854Y-4596384D01*
X3104641Y-4342384D02*
G01*
X3066541Y-4342384D01*
X3087370Y-4314697D01*
X3076956Y-4314697D01*
X3069843Y-4311142D01*
X3066541Y-4307586D01*
X3062986Y-4297171D01*
X3062986Y-4290313D01*
X3066541Y-4279900D01*
X3073400Y-4273042D01*
X3083813Y-4269486D01*
X3094227Y-4269486D01*
X3104641Y-4273042D01*
X3107943Y-4276597D01*
X3111500Y-4283455D01*
X3040125Y-4342384D02*
G01*
X3012440Y-4269486D01*
X2984754Y-4342384D02*
G01*
X3012440Y-4269486D01*
X2955036Y-4342384D02*
G01*
X2916936Y-4342384D01*
X2937509Y-4314697D01*
X2927350Y-4314697D01*
X2920238Y-4311142D01*
X2916936Y-4307586D01*
X2913379Y-4297171D01*
X2913379Y-4290313D01*
X2916936Y-4279900D01*
X2923793Y-4273042D01*
X2934208Y-4269486D01*
X2944622Y-4269486D01*
X2955036Y-4273042D01*
X2958338Y-4276597D01*
X2961893Y-4283455D01*
X1317244Y-4351528D02*
G01*
X1352042Y-4351528D01*
X1355344Y-4320286D01*
X1352042Y-4323842D01*
X1341628Y-4327144D01*
X1331213Y-4327144D01*
X1320800Y-4323842D01*
X1313942Y-4316729D01*
X1310386Y-4306315D01*
X1310386Y-4299457D01*
X1313942Y-4289044D01*
X1320800Y-4282186D01*
X1331213Y-4278629D01*
X1341628Y-4278629D01*
X1352042Y-4282186D01*
X1355344Y-4285742D01*
X1358900Y-4292600D01*
X1287526Y-4351528D02*
G01*
X1259839Y-4278629D01*
X1232154Y-4351528D02*
G01*
X1259839Y-4278629D01*
X1383029Y-4588002D02*
G01*
X1386586Y-4595113D01*
X1393444Y-4601971D01*
X1400555Y-4605528D01*
X1414271Y-4605528D01*
X1421129Y-4601971D01*
X1428242Y-4595113D01*
X1431544Y-4588002D01*
X1435100Y-4577842D01*
X1435100Y-4560315D01*
X1431544Y-4549902D01*
X1428242Y-4543044D01*
X1421129Y-4536186D01*
X1414271Y-4532629D01*
X1400555Y-4532629D01*
X1393444Y-4536186D01*
X1386586Y-4543044D01*
X1383029Y-4549902D01*
X1383029Y-4560315D01*
X1400555Y-4560315D02*
G01*
X1383029Y-4560315D01*
X1360170Y-4605528D02*
G01*
X1360170Y-4532629D01*
X1360170Y-4605528D02*
G01*
X1311910Y-4532629D01*
X1311910Y-4605528D02*
G01*
X1311910Y-4532629D01*
X1289050Y-4605528D02*
G01*
X1289050Y-4532629D01*
X1289050Y-4605528D02*
G01*
X1264665Y-4605528D01*
X1254252Y-4601971D01*
X1247394Y-4595113D01*
X1243837Y-4588002D01*
X1240536Y-4577842D01*
X1240536Y-4560315D01*
X1243837Y-4549902D01*
X1247394Y-4543044D01*
X1254252Y-4536186D01*
X1264665Y-4532629D01*
X1289050Y-4532629D01*
X1358900Y-4859528D02*
G01*
X1358900Y-4786629D01*
X1358900Y-4859528D02*
G01*
X1334770Y-4859528D01*
X1324355Y-4855971D01*
X1317244Y-4849113D01*
X1313942Y-4842002D01*
X1310386Y-4831842D01*
X1310386Y-4814315D01*
X1313942Y-4803902D01*
X1317244Y-4797044D01*
X1324355Y-4790186D01*
X1334770Y-4786629D01*
X1358900Y-4786629D01*
X1252981Y-4859528D02*
G01*
X1287526Y-4811013D01*
X1235710Y-4811013D01*
X1252981Y-4859528D02*
G01*
X1252981Y-4786629D01*
X1358900Y-5113528D02*
G01*
X1358900Y-5040629D01*
X1358900Y-5113528D02*
G01*
X1334770Y-5113528D01*
X1324355Y-5109971D01*
X1317244Y-5103113D01*
X1313942Y-5096002D01*
X1310386Y-5085842D01*
X1310386Y-5068315D01*
X1313942Y-5057902D01*
X1317244Y-5051044D01*
X1324355Y-5044186D01*
X1334770Y-5040629D01*
X1358900Y-5040629D01*
X1280668Y-5113528D02*
G01*
X1242568Y-5113528D01*
X1263395Y-5085842D01*
X1252981Y-5085842D01*
X1245870Y-5082286D01*
X1242568Y-5078729D01*
X1239012Y-5068315D01*
X1239012Y-5061457D01*
X1242568Y-5051044D01*
X1249426Y-5044186D01*
X1259839Y-5040629D01*
X1270254Y-5040629D01*
X1280668Y-5044186D01*
X1283970Y-5047742D01*
X1287526Y-5054600D01*
X1358900Y-5367528D02*
G01*
X1358900Y-5294629D01*
X1358900Y-5367528D02*
G01*
X1334770Y-5367528D01*
X1324355Y-5363971D01*
X1317244Y-5357113D01*
X1313942Y-5350002D01*
X1310386Y-5339842D01*
X1310386Y-5322315D01*
X1313942Y-5311902D01*
X1317244Y-5305044D01*
X1324355Y-5298186D01*
X1334770Y-5294629D01*
X1358900Y-5294629D01*
X1283970Y-5350002D02*
G01*
X1283970Y-5353557D01*
X1280668Y-5360415D01*
X1277112Y-5363971D01*
X1270254Y-5367528D01*
X1256284Y-5367528D01*
X1249426Y-5363971D01*
X1245870Y-5360415D01*
X1242568Y-5353557D01*
X1242568Y-5346700D01*
X1245870Y-5339842D01*
X1252981Y-5329428D01*
X1287526Y-5294629D01*
X1239012Y-5294629D01*
X1333500Y-5621528D02*
G01*
X1333500Y-5548629D01*
X1333500Y-5621528D02*
G01*
X1309370Y-5621528D01*
X1298955Y-5617971D01*
X1291844Y-5611113D01*
X1288542Y-5604002D01*
X1284986Y-5593842D01*
X1284986Y-5576315D01*
X1288542Y-5565902D01*
X1291844Y-5559044D01*
X1298955Y-5552186D01*
X1309370Y-5548629D01*
X1333500Y-5548629D01*
X1262126Y-5607557D02*
G01*
X1255268Y-5611113D01*
X1244854Y-5621528D01*
X1244854Y-5548629D01*
X1358900Y-5875528D02*
G01*
X1358900Y-5802629D01*
X1358900Y-5875528D02*
G01*
X1327657Y-5875528D01*
X1317244Y-5871971D01*
X1313942Y-5868415D01*
X1310386Y-5861557D01*
X1310386Y-5854700D01*
X1313942Y-5847842D01*
X1317244Y-5844286D01*
X1327657Y-5840729D01*
X1358900Y-5840729D01*
X1334770Y-5840729D02*
G01*
X1310386Y-5802629D01*
X1287526Y-5875528D02*
G01*
X1239012Y-5802629D01*
X1239012Y-5875528D02*
G01*
X1287526Y-5802629D01*
X1334770Y-6129528D02*
G01*
X1334770Y-6056629D01*
X1358900Y-6129528D02*
G01*
X1310386Y-6129528D01*
X1287526Y-6129528D02*
G01*
X1239012Y-6056629D01*
X1239012Y-6129528D02*
G01*
X1287526Y-6056629D01*
D10*
X2073656Y-5537200D02*
G01*
X2267458Y-5537200D01*
X2073656Y-5537200D02*
G01*
X2073656Y-5472429D01*
X2082800Y-5444744D01*
X2101341Y-5426455D01*
X2119629Y-5417057D01*
X2147570Y-5407913D01*
X2193543Y-5407913D01*
X2221229Y-5417057D01*
X2239772Y-5426455D01*
X2258313Y-5444744D01*
X2267458Y-5472429D01*
X2267458Y-5537200D01*
X2110486Y-5346954D02*
G01*
X2101341Y-5328412D01*
X2073656Y-5300726D01*
X2267458Y-5300726D01*
X2073656Y-5097526D02*
G01*
X2267458Y-5097526D01*
X2073656Y-5097526D02*
G01*
X2267458Y-5023612D01*
X2073656Y-4949697D02*
G01*
X2267458Y-5023612D01*
X2073656Y-4949697D02*
G01*
X2267458Y-4949697D01*
X2073656Y-4888737D02*
G01*
X2082800Y-4879594D01*
X2073656Y-4870450D01*
X2064258Y-4879594D01*
X2073656Y-4888737D01*
X2138172Y-4879594D02*
G01*
X2267458Y-4879594D01*
X2138172Y-4809489D02*
G01*
X2267458Y-4809489D01*
X2175256Y-4809489D02*
G01*
X2147570Y-4781550D01*
X2138172Y-4763262D01*
X2138172Y-4735576D01*
X2147570Y-4717034D01*
X2175256Y-4707889D01*
X2267458Y-4707889D01*
X2073656Y-4646929D02*
G01*
X2082800Y-4637531D01*
X2073656Y-4628387D01*
X2064258Y-4637531D01*
X2073656Y-4646929D01*
X2138172Y-4637531D02*
G01*
X2267458Y-4637531D01*
D11*
X252145Y-5448094D02*
G01*
X241825Y-5453608D01*
X231594Y-5464202D01*
X226692Y-5474449D01*
X227055Y-5495274D01*
X232318Y-5505599D01*
X242910Y-5515830D01*
X253415Y-5520982D01*
X269250Y-5525785D01*
X295155Y-5525333D01*
X310558Y-5519983D01*
X320878Y-5514469D01*
X331109Y-5503875D01*
X336006Y-5493374D01*
X335643Y-5472549D01*
X330385Y-5462478D01*
X319791Y-5452247D01*
X309285Y-5447096D01*
X246466Y-5413898D02*
G01*
X240952Y-5403578D01*
X225191Y-5388358D01*
X334139Y-5386456D01*
D12*
X3187700Y-6845300D02*
G01*
X1155700Y-6845300D01*
X3441700Y-4173728D02*
G01*
X3314700Y-4046728D01*
X3314700Y-3411728D01*
X901700Y-6586728D02*
G01*
X901700Y-3411728D01*
X3314700Y-3411728D01*
X3441700Y-6586728D02*
G01*
X3441700Y-4173728D01*
X116042Y-5916099D02*
G01*
X114668Y-5837369D01*
X156009Y-5877295D02*
G01*
X72202Y-5878756D01*
G75*
G01*
X3441697Y-6591297D02*
G02*
X3187697Y-6845297I-253999J-1D01*
G75*
G01*
X1155703Y-6845297D02*
G02*
X901703Y-6591297I-1J253999D01*
G75*
G01*
X430423Y-5657588D02*
G03*
X434487Y-5657517I5969J-224922D01*
M02*
